<?xml version="1.0" encoding="UTF-8" standalone="no"?>
<!-- Generator: Adobe Illustrator 18.0.0, SVG Export Plug-In . SVG Version: 6.00 Build 0)  -->

<svg
   version="1.1"
   id="Capa_1"
   x="0px"
   y="0px"
   viewBox="0 0 215.17 70.802033"
   xml:space="preserve"
   sodipodi:docname="sunglasses-svgrepo-com.svg"
   width="215.17"
   height="70.802032"
   inkscape:version="1.1.1 (3bf5ae0d25, 2021-09-20)"
   xmlns:inkscape="http://www.inkscape.org/namespaces/inkscape"
   xmlns:sodipodi="http://sodipodi.sourceforge.net/DTD/sodipodi-0.dtd"
   xmlns="http://www.w3.org/2000/svg"
   xmlns:svg="http://www.w3.org/2000/svg"><defs
   id="defs157" /><sodipodi:namedview
   id="namedview155"
   pagecolor="#505050"
   bordercolor="#eeeeee"
   borderopacity="1"
   inkscape:pageshadow="0"
   inkscape:pageopacity="0"
   inkscape:pagecheckerboard="0"
   showgrid="false"
   inkscape:zoom="2.4957011"
   inkscape:cx="107.585"
   inkscape:cy="35.460978"
   inkscape:window-width="1366"
   inkscape:window-height="745"
   inkscape:window-x="-8"
   inkscape:window-y="-8"
   inkscape:window-maximized="1"
   inkscape:current-layer="Capa_1" />
<g
   id="g122"
   transform="translate(0,-72.183078)"
   style="fill:#000000;fill-opacity:1;stroke:#000000;stroke-opacity:1">
	<path
   style="fill:#000000;fill-opacity:1;stroke:#000000;stroke-opacity:1"
   d="m 27.831,80.803 c -7.304,2.729 -11.551,8.944 -12.311,15.519 -0.238,2.066 -0.26,4.789 -0.011,7.813 l 25.549,-25.55 c -5.483,0.362 -10.233,1.098 -13.227,2.218 z"
   id="path84" />
	<path
   style="opacity:0.73;fill:#000000;fill-opacity:1;stroke:#000000;stroke-opacity:1"
   d="m 27.831,80.803 c -7.304,2.729 -11.551,8.944 -12.311,15.519 -0.238,2.066 -0.26,4.789 -0.011,7.813 l 25.549,-25.55 c -5.483,0.362 -10.233,1.098 -13.227,2.218 z"
   id="path86" />
	<path
   style="fill:#000000;fill-opacity:1;stroke:#000000;stroke-opacity:1"
   d="M 79.216,82.406 C 76.554,81.239 72.768,80.323 68.42,79.656 l -46.03,46.029 c 0.533,0.771 1.088,1.521 1.692,2.218 3.268,3.76 6.795,6.391 10.708,8.031 5.05,2.121 10.168,2.674 10.168,2.674 h 7.494 c 0,0 15.182,-0.567 25.159,-9.633 8.702,-7.908 12.385,-23.774 12.311,-32.113 C 89.887,93.181 86.281,85.506 79.216,82.406 Z"
   id="path88" />
	<path
   style="opacity:0.73;fill:#000000;fill-opacity:1;stroke:#000000;stroke-opacity:1"
   d="M 79.216,82.406 C 76.554,81.239 72.768,80.323 68.42,79.656 l -46.03,46.029 c 0.533,0.771 1.088,1.521 1.692,2.218 3.268,3.76 6.795,6.391 10.708,8.031 5.05,2.121 10.168,2.674 10.168,2.674 h 7.494 c 0,0 15.182,-0.567 25.159,-9.633 8.702,-7.908 12.385,-23.774 12.311,-32.113 C 89.887,93.181 86.281,85.506 79.216,82.406 Z"
   id="path90" />
	<path
   style="fill:#000000;fill-opacity:1;stroke:#000000;stroke-opacity:1"
   d="M 52.517,78.357 17.14,113.736 c 0.402,1.522 0.881,3.04 1.439,4.525 L 58.246,78.596 C 56.35,78.479 54.431,78.399 52.517,78.357 Z"
   id="path92" />
	<path
   style="opacity:0.73;fill:#000000;fill-opacity:1;stroke:#000000;stroke-opacity:1"
   d="M 52.517,78.357 17.14,113.736 c 0.402,1.522 0.881,3.04 1.439,4.525 L 58.246,78.596 C 56.35,78.479 54.431,78.399 52.517,78.357 Z"
   id="path94" />
	<path
   style="fill:#000000;fill-opacity:1;stroke:#000000;stroke-opacity:1"
   d="m 135.953,82.406 c -7.066,3.1 -10.672,10.775 -10.705,14.456 -0.032,3.671 0.665,8.801 2.195,14.068 l 32.486,-32.49 c -9.512,0.387 -18.835,1.711 -23.976,3.966 z"
   id="path96" />
	<path
   style="opacity:0.73;fill:#000000;fill-opacity:1;stroke:#000000;stroke-opacity:1"
   d="m 135.953,82.406 c -7.066,3.1 -10.672,10.775 -10.705,14.456 -0.032,3.671 0.665,8.801 2.195,14.068 l 32.486,-32.49 c -9.512,0.387 -18.835,1.711 -23.976,3.966 z"
   id="path98" />
	<path
   style="fill:#000000;fill-opacity:1;stroke:#000000;stroke-opacity:1"
   d="m 171.18,78.427 -40.643,40.645 c 0.641,1.333 1.347,2.622 2.114,3.854 l 44.133,-44.132 c -1.777,-0.165 -3.657,-0.288 -5.604,-0.367 z"
   id="path100" />
	<path
   style="opacity:0.73;fill:#000000;fill-opacity:1;stroke:#000000;stroke-opacity:1"
   d="m 171.18,78.427 -40.643,40.645 c 0.641,1.333 1.347,2.622 2.114,3.854 l 44.133,-44.132 c -1.777,-0.165 -3.657,-0.288 -5.604,-0.367 z"
   id="path102" />
	<path
   style="fill:#000000;fill-opacity:1;stroke:#000000;stroke-opacity:1"
   d="m 199.652,96.321 c -0.762,-6.574 -5.012,-12.789 -12.314,-15.519 -0.313,-0.117 -0.645,-0.229 -0.994,-0.338 l -48.64,48.637 c 8.653,7.757 21.109,9.21 24.261,9.458 0.333,-0.105 0.602,-0.08 0.804,0.049 h 7.44 c 0,0 5.117,-0.553 10.172,-2.674 3.91,-1.641 7.439,-4.271 10.703,-8.031 7.666,-8.823 9.406,-24.252 8.568,-31.582 z"
   id="path104" />
	<path
   style="opacity:0.73;fill:#000000;fill-opacity:1;stroke:#000000;stroke-opacity:1"
   d="m 199.652,96.321 c -0.762,-6.574 -5.012,-12.789 -12.314,-15.519 -0.313,-0.117 -0.645,-0.229 -0.994,-0.338 l -48.64,48.637 c 8.653,7.757 21.109,9.21 24.261,9.458 0.333,-0.105 0.602,-0.08 0.804,0.049 h 7.44 c 0,0 5.117,-0.553 10.172,-2.674 3.91,-1.641 7.439,-4.271 10.703,-8.031 7.666,-8.823 9.406,-24.252 8.568,-31.582 z"
   id="path106" />
	<path
   style="fill:#000000;fill-opacity:1;stroke:#000000;stroke-opacity:1"
   d="m 41.057,78.584 -25.549,25.55 c 0.247,3.003 0.76,6.303 1.632,9.602 L 52.517,78.357 c -3.949,-0.086 -7.861,-0.01 -11.46,0.227 z"
   id="path108" />
	<path
   style="fill:#000000;fill-opacity:1;stroke:#000000;stroke-opacity:1"
   d="m 58.246,78.597 -39.667,39.665 c 0.995,2.647 2.258,5.174 3.811,7.424 L 68.42,79.657 c -3.164,-0.487 -6.623,-0.84 -10.174,-1.06 z"
   id="path110" />
	<path
   style="fill:#000000;fill-opacity:1;stroke:#000000;stroke-opacity:1"
   d="m 159.93,78.44 -32.486,32.49 c 0.797,2.74 1.829,5.512 3.094,8.142 l 40.643,-40.645 c -3.612,-0.146 -7.446,-0.142 -11.251,0.013 z"
   id="path112" />
	<path
   style="fill:#000000;fill-opacity:1;stroke:#000000;stroke-opacity:1"
   d="m 176.784,78.795 -44.133,44.132 c 1.418,2.276 3.04,4.353 4.907,6.049 0.048,0.043 0.098,0.083 0.146,0.126 l 48.64,-48.637 c -2.443,-0.759 -5.761,-1.314 -9.56,-1.67 z"
   id="path114" />
	<path
   style="fill:#000000;fill-opacity:1;stroke:#000000;stroke-opacity:1"
   d="m 10.703,84.009 c 2.837,-0.263 5.61,-1.288 5.354,-2.136 -0.27,-0.887 -2.799,-1.336 -5.891,-1.07 -3.102,0.265 -5.574,1.283 -5.353,2.14 0.27,1.024 2.799,1.362 5.89,1.066 z"
   id="path116" />
	<path
   style="fill:#000000;fill-opacity:1;stroke:#000000;stroke-opacity:1"
   d="m 204.732,80.782 c -3.107,-0.242 -5.713,0.361 -5.631,1.24 0.1,1.053 2.543,1.8 5.637,2.014 2.844,0.195 5.744,-0.371 5.627,-1.248 -0.121,-0.915 -2.539,-1.767 -5.633,-2.006 z"
   id="path118" />
	<path
   style="fill:#000000;fill-opacity:1;stroke:#000000;stroke-opacity:1"
   d="M 155.219,72.771 C 135.242,73.724 117.656,82.705 107.048,82.942 96.247,83.184 85.027,74.818 58.876,72.771 26.976,70.278 0,76.52 0,76.52 l 1.067,12.313 c 0,0 5.41,1.24 6.958,7.487 2.154,8.692 1.426,24.124 9.1,33.189 8.968,10.595 18.035,12.857 27.299,13.383 9.043,0.508 29.413,-0.679 40.679,-13.383 4.279,-4.825 7.719,-11.378 10.171,-17.664 2.796,-7.173 4.586,-14.917 7.494,-17.128 1.066,-0.809 2.563,-0.561 4.28,-0.536 2.363,0.033 4.391,0.012 5.889,1.606 3.641,3.868 5.223,12.527 8.563,20.343 2.189,5.118 5.744,10.222 9.633,14.449 10.018,10.882 32.576,12.799 40.682,12.313 8.918,-0.538 18.941,-3.657 25.158,-11.775 3.023,-3.954 5.103,-8.859 6.422,-13.917 1.902,-7.312 2.436,-14.931 3.75,-20.339 1.742,-7.186 6.42,-7.496 6.42,-7.496 l 1.605,-12.846 c 0,10e-4 -27.035,-5.319 -59.951,-3.748 z m -77.608,56.204 c -9.978,9.065 -25.159,9.633 -25.159,9.633 h -7.494 c 0,0 -5.118,-0.553 -10.168,-2.674 -3.913,-1.641 -7.44,-4.271 -10.708,-8.031 -0.604,-0.696 -1.16,-1.446 -1.692,-2.218 -1.553,-2.25 -2.815,-4.776 -3.811,-7.424 -0.558,-1.485 -1.037,-3.003 -1.439,-4.525 -0.872,-3.299 -1.385,-6.599 -1.632,-9.602 -0.249,-3.024 -0.227,-5.747 0.011,-7.813 0.761,-6.574 5.008,-12.789 12.311,-15.519 2.994,-1.119 7.744,-1.855 13.226,-2.218 3.599,-0.238 7.511,-0.313 11.46,-0.227 1.914,0.042 3.833,0.122 5.729,0.239 3.55,0.221 7.01,0.574 10.173,1.06 4.348,0.667 8.134,1.583 10.796,2.75 7.065,3.1 10.671,10.775 10.706,14.456 0.076,8.339 -3.607,24.205 -12.309,32.113 z M 4.813,82.942 c -0.222,-0.857 2.251,-1.875 5.353,-2.14 3.092,-0.266 5.621,0.184 5.891,1.07 0.257,0.848 -2.517,1.873 -5.354,2.136 -3.091,0.297 -5.62,-0.041 -5.89,-1.066 z m 199.925,1.094 c -3.094,-0.214 -5.537,-0.961 -5.637,-2.014 -0.082,-0.879 2.523,-1.482 5.631,-1.24 3.094,0.239 5.512,1.091 5.633,2.006 0.117,0.877 -2.783,1.443 -5.627,1.248 z m -24.357,51.898 c -5.055,2.121 -10.172,2.674 -10.172,2.674 h -7.44 c -0.201,-0.129 -0.471,-0.154 -0.804,-0.049 -3.151,-0.248 -15.607,-1.701 -24.261,-9.458 -0.048,-0.043 -0.098,-0.083 -0.146,-0.126 -1.867,-1.696 -3.489,-3.772 -4.907,-6.049 -0.768,-1.233 -1.474,-2.521 -2.114,-3.854 -1.265,-2.63 -2.297,-5.401 -3.094,-8.142 -1.53,-5.268 -2.228,-10.397 -2.195,-14.068 0.033,-3.681 3.639,-11.356 10.705,-14.456 5.141,-2.255 14.464,-3.579 23.977,-3.966 3.806,-0.155 7.64,-0.159 11.25,-0.013 1.947,0.079 3.827,0.202 5.604,0.368 3.799,0.357 7.117,0.912 9.56,1.67 0.35,0.108 0.682,0.221 0.994,0.338 7.303,2.729 11.553,8.944 12.314,15.519 0.838,7.33 -0.902,22.759 -8.568,31.582 -3.264,3.759 -6.793,6.39 -10.703,8.03 z"
   id="path120" />
</g>
<g
   id="g124"
   transform="translate(0,-72.183078)">
</g>
<g
   id="g126"
   transform="translate(0,-72.183078)">
</g>
<g
   id="g128"
   transform="translate(0,-72.183078)">
</g>
<g
   id="g130"
   transform="translate(0,-72.183078)">
</g>
<g
   id="g132"
   transform="translate(0,-72.183078)">
</g>
<g
   id="g134"
   transform="translate(0,-72.183078)">
</g>
<g
   id="g136"
   transform="translate(0,-72.183078)">
</g>
<g
   id="g138"
   transform="translate(0,-72.183078)">
</g>
<g
   id="g140"
   transform="translate(0,-72.183078)">
</g>
<g
   id="g142"
   transform="translate(0,-72.183078)">
</g>
<g
   id="g144"
   transform="translate(0,-72.183078)">
</g>
<g
   id="g146"
   transform="translate(0,-72.183078)">
</g>
<g
   id="g148"
   transform="translate(0,-72.183078)">
</g>
<g
   id="g150"
   transform="translate(0,-72.183078)">
</g>
<g
   id="g152"
   transform="translate(0,-72.183078)">
</g>
</svg>
